<mxfile host="app.diagrams.net" modified="2023-10-06T18:07:00.639Z" agent="Mozilla/5.0 (Macintosh; Intel Mac OS X 10_15_7) AppleWebKit/537.36 (KHTML, like Gecko) Chrome/117.0.0.0 Safari/537.36" etag="5GOVfBbbGCEzfwVWE8CO" version="22.0.3" type="github">
  <diagram name="Page-1" id="Olhc9g_w97RCL2uqgHVr">
    <mxGraphModel dx="787" dy="512" grid="1" gridSize="9" guides="1" tooltips="1" connect="1" arrows="1" fold="1" page="1" pageScale="1" pageWidth="827" pageHeight="1169" math="0" shadow="0">
      <root>
        <mxCell id="0" />
        <mxCell id="1" parent="0" />
        <mxCell id="bZ3AOkUIXl0DLdlU-3I0-15" style="edgeStyle=orthogonalEdgeStyle;rounded=0;orthogonalLoop=1;jettySize=auto;html=1;entryX=0;entryY=0.5;entryDx=0;entryDy=0;fillColor=#dae8fc;strokeColor=#6c8ebf;" edge="1" parent="1" source="bZ3AOkUIXl0DLdlU-3I0-1" target="bZ3AOkUIXl0DLdlU-3I0-6">
          <mxGeometry relative="1" as="geometry" />
        </mxCell>
        <mxCell id="bZ3AOkUIXl0DLdlU-3I0-46" style="edgeStyle=orthogonalEdgeStyle;rounded=0;orthogonalLoop=1;jettySize=auto;html=1;entryX=0.25;entryY=0;entryDx=0;entryDy=0;fillColor=#dae8fc;strokeColor=#6c8ebf;strokeWidth=2;" edge="1" parent="1" source="bZ3AOkUIXl0DLdlU-3I0-1" target="bZ3AOkUIXl0DLdlU-3I0-10">
          <mxGeometry relative="1" as="geometry">
            <Array as="points">
              <mxPoint x="70" y="180" />
              <mxPoint x="340" y="180" />
            </Array>
          </mxGeometry>
        </mxCell>
        <mxCell id="bZ3AOkUIXl0DLdlU-3I0-1" value="Transporter&lt;br&gt;Loign" style="whiteSpace=wrap;html=1;aspect=fixed;" vertex="1" parent="1">
          <mxGeometry x="40" y="240" width="80" height="80" as="geometry" />
        </mxCell>
        <mxCell id="bZ3AOkUIXl0DLdlU-3I0-16" style="edgeStyle=orthogonalEdgeStyle;rounded=0;orthogonalLoop=1;jettySize=auto;html=1;entryX=0;entryY=0.5;entryDx=0;entryDy=0;fillColor=#dae8fc;strokeColor=#6c8ebf;" edge="1" parent="1" source="bZ3AOkUIXl0DLdlU-3I0-2" target="bZ3AOkUIXl0DLdlU-3I0-7">
          <mxGeometry relative="1" as="geometry" />
        </mxCell>
        <mxCell id="bZ3AOkUIXl0DLdlU-3I0-2" value="GOI&lt;br&gt;(Admin)" style="whiteSpace=wrap;html=1;aspect=fixed;" vertex="1" parent="1">
          <mxGeometry x="40" y="400" width="80" height="80" as="geometry" />
        </mxCell>
        <mxCell id="bZ3AOkUIXl0DLdlU-3I0-4" value="" style="swimlane;startSize=0;fillColor=#e1d5e7;strokeColor=#9673a6;strokeWidth=1;dashed=1;" vertex="1" parent="1">
          <mxGeometry x="160" y="200" width="400" height="320" as="geometry" />
        </mxCell>
        <mxCell id="bZ3AOkUIXl0DLdlU-3I0-6" value="Availability&amp;nbsp;" style="whiteSpace=wrap;html=1;aspect=fixed;" vertex="1" parent="bZ3AOkUIXl0DLdlU-3I0-4">
          <mxGeometry x="40" y="40" width="80" height="80" as="geometry" />
        </mxCell>
        <mxCell id="bZ3AOkUIXl0DLdlU-3I0-7" value="Hiring transporter&amp;nbsp;" style="whiteSpace=wrap;html=1;aspect=fixed;" vertex="1" parent="bZ3AOkUIXl0DLdlU-3I0-4">
          <mxGeometry x="40" y="200" width="80" height="80" as="geometry" />
        </mxCell>
        <mxCell id="bZ3AOkUIXl0DLdlU-3I0-8" value="Demand" style="whiteSpace=wrap;html=1;aspect=fixed;" vertex="1" parent="bZ3AOkUIXl0DLdlU-3I0-4">
          <mxGeometry x="280" y="200" width="80" height="80" as="geometry" />
        </mxCell>
        <mxCell id="bZ3AOkUIXl0DLdlU-3I0-10" value="GPS" style="whiteSpace=wrap;html=1;aspect=fixed;fontSize=16;" vertex="1" parent="bZ3AOkUIXl0DLdlU-3I0-4">
          <mxGeometry x="160" y="40" width="80" height="80" as="geometry" />
        </mxCell>
        <mxCell id="bZ3AOkUIXl0DLdlU-3I0-51" style="edgeStyle=orthogonalEdgeStyle;rounded=0;orthogonalLoop=1;jettySize=auto;html=1;entryX=0.5;entryY=0;entryDx=0;entryDy=0;strokeWidth=2;" edge="1" parent="bZ3AOkUIXl0DLdlU-3I0-4" source="bZ3AOkUIXl0DLdlU-3I0-30" target="bZ3AOkUIXl0DLdlU-3I0-50">
          <mxGeometry relative="1" as="geometry">
            <Array as="points">
              <mxPoint x="344" y="187" />
              <mxPoint x="200" y="187" />
            </Array>
          </mxGeometry>
        </mxCell>
        <mxCell id="bZ3AOkUIXl0DLdlU-3I0-30" value="Monitoring devices(cameras , sensors)" style="whiteSpace=wrap;html=1;aspect=fixed;fontSize=10;align=center;verticalAlign=middle;" vertex="1" parent="bZ3AOkUIXl0DLdlU-3I0-4">
          <mxGeometry x="281" y="40" width="80" height="80" as="geometry" />
        </mxCell>
        <mxCell id="bZ3AOkUIXl0DLdlU-3I0-45" value="" style="endArrow=none;html=1;rounded=0;entryX=0;entryY=0.5;entryDx=0;entryDy=0;exitX=1;exitY=0.5;exitDx=0;exitDy=0;" edge="1" parent="bZ3AOkUIXl0DLdlU-3I0-4" source="bZ3AOkUIXl0DLdlU-3I0-10" target="bZ3AOkUIXl0DLdlU-3I0-30">
          <mxGeometry width="50" height="50" relative="1" as="geometry">
            <mxPoint x="220" y="170" as="sourcePoint" />
            <mxPoint x="270" y="120" as="targetPoint" />
          </mxGeometry>
        </mxCell>
        <mxCell id="bZ3AOkUIXl0DLdlU-3I0-50" value="Analytics and optimization&amp;nbsp;" style="whiteSpace=wrap;html=1;aspect=fixed;" vertex="1" parent="bZ3AOkUIXl0DLdlU-3I0-4">
          <mxGeometry x="160" y="200" width="80" height="80" as="geometry" />
        </mxCell>
        <mxCell id="bZ3AOkUIXl0DLdlU-3I0-48" style="edgeStyle=orthogonalEdgeStyle;rounded=0;orthogonalLoop=1;jettySize=auto;html=1;entryX=0.75;entryY=0;entryDx=0;entryDy=0;" edge="1" parent="bZ3AOkUIXl0DLdlU-3I0-4">
          <mxGeometry relative="1" as="geometry">
            <mxPoint x="307.0000000000002" y="120" as="sourcePoint" />
            <mxPoint x="-60.999999999999886" y="200" as="targetPoint" />
            <Array as="points">
              <mxPoint x="299" y="120" />
              <mxPoint x="299" y="169" />
              <mxPoint x="-61" y="169" />
            </Array>
          </mxGeometry>
        </mxCell>
        <mxCell id="bZ3AOkUIXl0DLdlU-3I0-14" style="edgeStyle=orthogonalEdgeStyle;rounded=0;orthogonalLoop=1;jettySize=auto;html=1;entryX=1;entryY=0.5;entryDx=0;entryDy=0;strokeWidth=2;" edge="1" parent="1" source="bZ3AOkUIXl0DLdlU-3I0-5" target="bZ3AOkUIXl0DLdlU-3I0-8">
          <mxGeometry relative="1" as="geometry">
            <Array as="points">
              <mxPoint x="540" y="360" />
              <mxPoint x="540" y="440" />
            </Array>
          </mxGeometry>
        </mxCell>
        <mxCell id="bZ3AOkUIXl0DLdlU-3I0-5" value="User&lt;br&gt;login" style="whiteSpace=wrap;html=1;aspect=fixed;" vertex="1" parent="1">
          <mxGeometry x="600" y="320" width="80" height="80" as="geometry" />
        </mxCell>
        <mxCell id="bZ3AOkUIXl0DLdlU-3I0-23" style="edgeStyle=orthogonalEdgeStyle;rounded=0;orthogonalLoop=1;jettySize=auto;html=1;entryX=0.5;entryY=1;entryDx=0;entryDy=0;exitX=0.5;exitY=1;exitDx=0;exitDy=0;" edge="1" parent="1" source="bZ3AOkUIXl0DLdlU-3I0-8" target="bZ3AOkUIXl0DLdlU-3I0-2">
          <mxGeometry relative="1" as="geometry">
            <mxPoint x="450.0000000000002" y="520" as="sourcePoint" />
            <mxPoint x="129.99999999999977" y="600" as="targetPoint" />
            <Array as="points">
              <mxPoint x="480" y="558" />
              <mxPoint x="80" y="558" />
            </Array>
          </mxGeometry>
        </mxCell>
        <mxCell id="bZ3AOkUIXl0DLdlU-3I0-26" style="edgeStyle=orthogonalEdgeStyle;rounded=0;orthogonalLoop=1;jettySize=auto;html=1;entryX=0.243;entryY=0.984;entryDx=0;entryDy=0;entryPerimeter=0;strokeWidth=2;" edge="1" parent="1" source="bZ3AOkUIXl0DLdlU-3I0-24" target="bZ3AOkUIXl0DLdlU-3I0-2">
          <mxGeometry relative="1" as="geometry">
            <mxPoint x="20" y="440" as="targetPoint" />
            <Array as="points">
              <mxPoint x="59" y="594" />
              <mxPoint x="59" y="495" />
              <mxPoint x="59" y="495" />
            </Array>
          </mxGeometry>
        </mxCell>
        <mxCell id="bZ3AOkUIXl0DLdlU-3I0-24" value="Third party API" style="whiteSpace=wrap;html=1;aspect=fixed;" vertex="1" parent="1">
          <mxGeometry x="612" y="558" width="80" height="80" as="geometry" />
        </mxCell>
        <mxCell id="bZ3AOkUIXl0DLdlU-3I0-25" style="edgeStyle=orthogonalEdgeStyle;rounded=0;orthogonalLoop=1;jettySize=auto;html=1;strokeWidth=2;" edge="1" parent="1" source="bZ3AOkUIXl0DLdlU-3I0-10" target="bZ3AOkUIXl0DLdlU-3I0-24">
          <mxGeometry relative="1" as="geometry">
            <Array as="points">
              <mxPoint x="360" y="180" />
              <mxPoint x="720" y="180" />
              <mxPoint x="720" y="594" />
            </Array>
          </mxGeometry>
        </mxCell>
        <mxCell id="bZ3AOkUIXl0DLdlU-3I0-37" style="edgeStyle=orthogonalEdgeStyle;rounded=0;orthogonalLoop=1;jettySize=auto;html=1;exitX=0.5;exitY=1;exitDx=0;exitDy=0;entryX=0.25;entryY=0;entryDx=0;entryDy=0;" edge="1" parent="1" source="bZ3AOkUIXl0DLdlU-3I0-6" target="bZ3AOkUIXl0DLdlU-3I0-2">
          <mxGeometry relative="1" as="geometry">
            <Array as="points">
              <mxPoint x="240" y="333" />
              <mxPoint x="60" y="333" />
            </Array>
          </mxGeometry>
        </mxCell>
        <mxCell id="bZ3AOkUIXl0DLdlU-3I0-49" style="edgeStyle=orthogonalEdgeStyle;rounded=0;orthogonalLoop=1;jettySize=auto;html=1;entryX=0.5;entryY=0;entryDx=0;entryDy=0;" edge="1" parent="1" source="bZ3AOkUIXl0DLdlU-3I0-10" target="bZ3AOkUIXl0DLdlU-3I0-2">
          <mxGeometry relative="1" as="geometry">
            <Array as="points">
              <mxPoint x="360" y="351" />
              <mxPoint x="80" y="351" />
            </Array>
          </mxGeometry>
        </mxCell>
        <mxCell id="bZ3AOkUIXl0DLdlU-3I0-52" style="edgeStyle=orthogonalEdgeStyle;rounded=0;orthogonalLoop=1;jettySize=auto;html=1;entryX=0.637;entryY=1.02;entryDx=0;entryDy=0;entryPerimeter=0;fillColor=#f8cecc;strokeColor=#b85450;strokeWidth=2;" edge="1" parent="1" source="bZ3AOkUIXl0DLdlU-3I0-50" target="bZ3AOkUIXl0DLdlU-3I0-5">
          <mxGeometry relative="1" as="geometry">
            <Array as="points">
              <mxPoint x="360" y="540" />
              <mxPoint x="651" y="540" />
            </Array>
          </mxGeometry>
        </mxCell>
        <mxCell id="bZ3AOkUIXl0DLdlU-3I0-53" style="edgeStyle=orthogonalEdgeStyle;rounded=0;orthogonalLoop=1;jettySize=auto;html=1;fillColor=#f8cecc;strokeColor=#b85450;strokeWidth=2;" edge="1" parent="1" source="bZ3AOkUIXl0DLdlU-3I0-10">
          <mxGeometry relative="1" as="geometry">
            <mxPoint x="648" y="315" as="targetPoint" />
            <Array as="points">
              <mxPoint x="378" y="216" />
              <mxPoint x="648" y="216" />
            </Array>
          </mxGeometry>
        </mxCell>
      </root>
    </mxGraphModel>
  </diagram>
</mxfile>
